<svg width="16" height="20" viewBox="0 0 16 20" fill="none" xmlns="http://www.w3.org/2000/svg">
<path d="M0.715565 20C0.612486 20.0002 0.510593 19.978 0.416882 19.9351C0.323171 19.8921 0.239863 19.8294 0.17268 19.7513C0.105496 19.6731 0.0560292 19.5813 0.0276756 19.4822C-0.000677989 19.3831 -0.00724619 19.279 0.00842192 19.1771L2.86556 0.605714C2.89889 0.422674 3.00231 0.259858 3.15384 0.151904C3.30536 0.0439492 3.49303 -0.000624252 3.67691 0.0276657C3.8608 0.0559558 4.02639 0.154876 4.13846 0.303384C4.25053 0.451892 4.30023 0.638265 4.27699 0.822857L1.41985 19.3943C1.39396 19.5626 1.30876 19.7162 1.17962 19.8273C1.05048 19.9383 0.885897 19.9996 0.715565 20ZM14.9984 20C14.8281 19.9996 14.6635 19.9383 14.5344 19.8273C14.4052 19.7162 14.32 19.5626 14.2941 19.3943L11.437 0.822857C11.4138 0.638265 11.4635 0.451892 11.5755 0.303384C11.6876 0.154876 11.8532 0.0559558 12.0371 0.0276657C12.221 -0.000624252 12.4086 0.0439492 12.5602 0.151904C12.7117 0.259858 12.8151 0.422674 12.8484 0.605714L15.7056 19.1771C15.7212 19.279 15.7147 19.3831 15.6863 19.4822C15.658 19.5813 15.6085 19.6731 15.5413 19.7513C15.4741 19.8294 15.3908 19.8921 15.2971 19.9351C15.2034 19.978 15.1015 20.0002 14.9984 20ZM7.14271 0.714286C7.14271 0.524845 7.21796 0.343164 7.35192 0.209209C7.48587 0.0752549 7.66755 0 7.85699 0C8.04643 0 8.22812 0.0752549 8.36207 0.209209C8.49603 0.343164 8.57128 0.524845 8.57128 0.714286V2.14286C8.57128 2.3323 8.49603 2.51398 8.36207 2.64793C8.22812 2.78189 8.04643 2.85714 7.85699 2.85714C7.66755 2.85714 7.48587 2.78189 7.35192 2.64793C7.21796 2.51398 7.14271 2.3323 7.14271 2.14286V0.714286ZM7.14271 5C7.14271 4.81056 7.21796 4.62888 7.35192 4.49492C7.48587 4.36097 7.66755 4.28571 7.85699 4.28571C8.04643 4.28571 8.22812 4.36097 8.36207 4.49492C8.49603 4.62888 8.57128 4.81056 8.57128 5V6.42857C8.57128 6.61801 8.49603 6.79969 8.36207 6.93365C8.22812 7.0676 8.04643 7.14286 7.85699 7.14286C7.66755 7.14286 7.48587 7.0676 7.35192 6.93365C7.21796 6.79969 7.14271 6.61801 7.14271 6.42857V5ZM7.14271 9.28571C7.14271 9.09627 7.21796 8.91459 7.35192 8.78064C7.48587 8.64668 7.66755 8.57143 7.85699 8.57143C8.04643 8.57143 8.22812 8.64668 8.36207 8.78064C8.49603 8.91459 8.57128 9.09627 8.57128 9.28571V10.7143C8.57128 10.9037 8.49603 11.0854 8.36207 11.2194C8.22812 11.3533 8.04643 11.4286 7.85699 11.4286C7.66755 11.4286 7.48587 11.3533 7.35192 11.2194C7.21796 11.0854 7.14271 10.9037 7.14271 10.7143V9.28571ZM7.14271 13.5714C7.14271 13.382 7.21796 13.2003 7.35192 13.0664C7.48587 12.9324 7.66755 12.8571 7.85699 12.8571C8.04643 12.8571 8.22812 12.9324 8.36207 13.0664C8.49603 13.2003 8.57128 13.382 8.57128 13.5714V15C8.57128 15.1894 8.49603 15.3711 8.36207 15.5051C8.22812 15.639 8.04643 15.7143 7.85699 15.7143C7.66755 15.7143 7.48587 15.639 7.35192 15.5051C7.21796 15.3711 7.14271 15.1894 7.14271 15V13.5714ZM7.14271 17.5C7.14271 17.3106 7.21796 17.1289 7.35192 16.9949C7.48587 16.861 7.66755 16.7857 7.85699 16.7857C8.04643 16.7857 8.22812 16.861 8.36207 16.9949C8.49603 17.1289 8.57128 17.3106 8.57128 17.5V18.9286C8.57128 19.118 8.49603 19.2997 8.36207 19.4336C8.22812 19.5676 8.04643 19.6429 7.85699 19.6429C7.66755 19.6429 7.48587 19.5676 7.35192 19.4336C7.21796 19.2997 7.14271 19.118 7.14271 18.9286V17.5Z" fill="#484848"/>
</svg>
