<svg width="24" height="24" viewBox="0 0 24 24" fill="none" xmlns="http://www.w3.org/2000/svg">
<path d="M6.75 11.25H8.25V12.75H6.75V11.25Z" fill="#017E7A"/>
<path d="M12.75 5.25H14.25V6.75H12.75V5.25Z" fill="#017E7A"/>
<path d="M6.75 14.25H8.25V15.75H6.75V14.25Z" fill="#017E7A"/>
<path d="M9.75 11.25H11.25V12.75H9.75V11.25Z" fill="#017E7A"/>
<path d="M15.75 5.25H17.25V6.75H15.75V5.25Z" fill="#017E7A"/>
<path d="M9.75 14.25H11.25V15.75H9.75V14.25Z" fill="#017E7A"/>
<path d="M12.75 11.25H14.25V12.75H12.75V11.25Z" fill="#017E7A"/>
<path d="M12.75 14.25H14.25V15.75H12.75V14.25Z" fill="#017E7A"/>
<path d="M21 20.25H20.25V3C20.25 2.80109 20.171 2.61032 20.0303 2.46967C19.8897 2.32902 19.6989 2.25 19.5 2.25H10.5C10.3011 2.25 10.1103 2.32902 9.96967 2.46967C9.82902 2.61032 9.75 2.80109 9.75 3V6C9.75 6.19891 9.82902 6.38968 9.96967 6.53033C10.1103 6.67098 10.3011 6.75 10.5 6.75C10.6989 6.75 10.8897 6.67098 11.0303 6.53033C11.171 6.38968 11.25 6.19891 11.25 6V3.75H18.75V20.25H12.75V18C12.75 17.8011 12.671 17.6103 12.5303 17.4697C12.3897 17.329 12.1989 17.25 12 17.25H9C8.80109 17.25 8.61032 17.329 8.46967 17.4697C8.32902 17.6103 8.25 17.8011 8.25 18V20.25H5.25V9.75H15.75V18C15.75 18.1989 15.829 18.3897 15.9697 18.5303C16.1103 18.671 16.3011 18.75 16.5 18.75C16.6989 18.75 16.8897 18.671 17.0303 18.5303C17.171 18.3897 17.25 18.1989 17.25 18V9C17.25 8.80109 17.171 8.61032 17.0303 8.46967C16.8897 8.32902 16.6989 8.25 16.5 8.25H4.5C4.30109 8.25 4.11032 8.32902 3.96967 8.46967C3.82902 8.61032 3.75 8.80109 3.75 9V20.25H3C2.80109 20.25 2.61032 20.329 2.46967 20.4697C2.32902 20.6103 2.25 20.8011 2.25 21C2.25 21.1989 2.32902 21.3897 2.46967 21.5303C2.61032 21.671 2.80109 21.75 3 21.75H21C21.1989 21.75 21.3897 21.671 21.5303 21.5303C21.671 21.3897 21.75 21.1989 21.75 21C21.75 20.8011 21.671 20.6103 21.5303 20.4697C21.3897 20.329 21.1989 20.25 21 20.25ZM9.75 18.75H11.25V20.25H9.75V18.75Z" fill="#017E7A"/>
</svg>
