<svg width="14" height="14" viewBox="0 0 14 14" fill="none" xmlns="http://www.w3.org/2000/svg">
<path fill-rule="evenodd" clip-rule="evenodd" d="M8.12774 0.718634L8.12786 0.718688L12.7942 2.84628L12.7946 2.84645C13.1244 2.99628 13.4994 3.28802 13.5003 3.75503C13.5012 4.22254 13.1266 4.51526 12.7977 4.66545L12.7975 4.66554L11.2155 5.38704L12.7946 6.09501L12.7969 6.09607C13.1261 6.24569 13.5032 6.53815 13.5021 7.00712C13.501 7.47518 13.1237 7.7665 12.7936 7.9159L12.7928 7.91625L11.2698 8.61074L12.8023 9.34821C13.1306 9.49874 13.5025 9.79024 13.5025 10.2556C13.5025 10.7234 13.1268 11.0155 12.7973 11.1653L12.7969 11.1655L8.17219 13.2747C7.82463 13.433 7.3997 13.4999 7.00282 13.4999C6.60593 13.4999 6.181 13.433 5.83344 13.2747L1.20873 11.1655L1.20835 11.1653C0.878872 11.0155 0.503128 10.7234 0.503128 10.2556C0.503128 9.78769 0.879161 9.49555 1.20873 9.34575L1.21093 9.34476L2.78764 8.63724L1.20534 7.91569C0.87584 7.76586 0.5 7.47375 0.5 7.00594C0.5 6.53801 0.876033 6.24587 1.2056 6.09607L1.20778 6.09508L2.78779 5.38599L1.20835 4.66564C0.879038 4.51586 0.503128 4.22388 0.503128 3.75609C0.503128 3.28827 0.879107 2.99628 1.20844 2.84651L1.20873 2.84638L5.87246 0.718547C6.20896 0.564815 6.61825 0.5 7 0.5C7.38182 0.5 7.7912 0.564839 8.12774 0.718634ZM3.9991 9.18968L1.62363 10.2556L6.24781 12.3646L6.248 12.3647L6.24811 12.3648C6.42836 12.4468 6.70159 12.4999 7.00282 12.4999C7.30404 12.4999 7.57727 12.4468 7.75752 12.3648L7.75763 12.3647L7.75782 12.3646L12.382 10.2556C12.3791 10.2543 12.3761 10.2529 12.3732 10.2515L10.0858 9.15069L8.16933 10.0246L8.16928 10.0246C7.82166 10.1831 7.39665 10.2502 6.99969 10.2502C6.60273 10.2502 6.17772 10.1831 5.83009 10.0246L5.83005 10.0246L3.9991 9.18968ZM9.75533 4.95392C9.77951 4.94038 9.80476 4.92887 9.83078 4.91951L12.3804 3.75666L7.71215 1.62819C7.54277 1.55077 7.28517 1.5 7 1.5C6.71484 1.5 6.45723 1.55077 6.28786 1.62819L1.62396 3.75609L6.24804 5.86505L6.24811 5.86508C6.42829 5.94721 6.70154 6.00047 7.00282 6.00047C7.3041 6.00047 7.57734 5.94721 7.75752 5.86508L7 1.5L7.75759 5.86505L9.75533 4.95392ZM12.3804 7.00524L10.0038 5.93968L8.17248 6.77492L8.17241 6.77495C7.82478 6.93343 7.39978 7.00047 7.00282 7.00047C6.60585 7.00047 6.18085 6.93343 5.83322 6.77495L5.83315 6.77492L3.99911 5.93845L1.6205 7.00595L6.24491 9.11474L6.24495 9.11476C6.42514 9.19689 6.69839 9.25016 6.99969 9.25016C7.30098 9.25016 7.57423 9.19689 7.75442 9.11476L7.75447 9.11474L12.3794 7.00569L12.3804 7.00524Z" fill="white"/>
</svg>
